<svg width="1292" height="294" viewBox="0 0 1292 294" fill="none" xmlns="http://www.w3.org/2000/svg">
<path d="M301.382 18.2419C293.283 9.56159 281.867 4.62219 269.905 4.62219H245.902L307.111 107.268C322.132 132.458 322.132 163.695 307.111 188.885L245.902 291.531H269.905C281.867 291.531 293.283 286.591 301.382 277.911L392.652 180.092C409.537 161.995 409.537 134.158 392.652 116.061L301.382 18.2419Z" fill="#EDEDED"/>
<path d="M103.934 18.2419C112.033 9.56159 123.448 4.62219 135.411 4.62219H159.413L102.839 99.4951C84.9573 129.483 84.9573 166.67 102.839 196.658L159.413 291.531H135.411C123.448 291.531 112.033 286.591 103.934 277.911L12.6637 180.092C-4.22123 161.995 -4.22123 134.158 12.6637 116.061L103.934 18.2419Z" fill="#EDEDED"/>
<path d="M140.526 161.878C133.787 153.141 133.829 141.033 140.631 132.343L183.584 77.4587C193.443 64.8624 212.718 64.8623 222.576 77.4586L265.531 132.343C272.332 141.033 272.375 153.141 265.635 161.878L222.682 217.559C212.827 230.335 193.337 230.335 183.481 217.56L140.526 161.878Z" fill="#EDEDED"/>
<path d="M486.842 164.016V3.34726H551.11C562.565 3.34726 571.826 5.65316 578.892 10.265C585.959 14.8024 591.128 20.5299 594.401 27.4476C597.674 34.3653 599.31 41.3573 599.31 48.4238C599.31 57.4242 597.265 64.8998 593.174 70.8505C589.157 76.8012 583.615 80.7807 576.549 82.7891V77.2103C586.591 79.293 594.104 83.942 599.087 91.1572C604.145 98.3725 606.674 106.443 606.674 115.369C606.674 124.965 604.889 133.407 601.319 140.697C597.823 147.986 592.467 153.714 585.252 157.879C578.037 161.971 568.962 164.016 558.028 164.016H486.842ZM517.637 135.453H554.903C558.994 135.453 562.639 134.597 565.838 132.887C569.036 131.101 571.528 128.647 573.313 125.523C575.173 122.324 576.103 118.568 576.103 114.253C576.103 110.46 575.322 107.075 573.76 104.1C572.198 101.125 569.817 98.7816 566.619 97.0707C563.495 95.2855 559.59 94.3929 554.903 94.3929H517.637V135.453ZM517.637 66.0527H550.664C554.085 66.0527 557.135 65.4577 559.813 64.2675C562.491 63.0774 564.61 61.255 566.173 58.8003C567.735 56.2713 568.516 53.0356 568.516 49.0932C568.516 44.1839 566.991 40.0556 563.941 36.7084C560.891 33.3611 556.465 31.6875 550.664 31.6875H517.637V66.0527Z" fill="#EDEDED"/>
<path d="M628.927 164.016V3.34726H696.765C698.327 3.34726 700.41 3.42165 703.013 3.57041C705.691 3.6448 708.071 3.86795 710.154 4.23987C719.749 5.72754 727.597 8.88885 733.696 13.7238C739.87 18.5587 744.408 24.6582 747.309 32.0222C750.209 39.3118 751.66 47.4568 751.66 56.4572C751.66 69.9207 748.313 81.4502 741.618 91.0457C734.924 100.567 724.435 106.443 710.154 108.675L696.765 109.567H659.275V164.016H628.927ZM719.526 164.016L687.839 98.6328L719.08 92.6077L753.891 164.016H719.526ZM659.275 81.227H695.426C696.988 81.227 698.699 81.1526 700.558 81.0039C702.418 80.8551 704.129 80.5576 705.691 80.1113C709.782 78.9955 712.943 77.1359 715.175 74.5325C717.406 71.8547 718.931 68.9165 719.749 65.718C720.642 62.4451 721.088 59.3582 721.088 56.4572C721.088 53.5563 720.642 50.5065 719.749 47.308C718.931 44.0352 717.406 41.097 715.175 38.4936C712.943 35.8158 709.782 33.919 705.691 32.8032C704.129 32.3569 702.418 32.0594 700.558 31.9106C698.699 31.7618 696.988 31.6875 695.426 31.6875H659.275V81.227Z" fill="#EDEDED"/>
<path d="M780.652 164.016V3.34726H811.001V164.016H780.652Z" fill="#EDEDED"/>
<path d="M911.396 167.363C901.28 167.363 891.647 165.578 882.498 162.008C873.349 158.363 865.241 153.007 858.174 145.941C851.182 138.874 845.641 130.134 841.55 119.721C837.533 109.307 835.525 97.2939 835.525 83.6817C835.525 65.904 838.909 50.8041 845.678 38.382C852.521 25.8855 861.671 16.3644 873.126 9.81864C884.655 3.27288 897.412 0 911.396 0C932.075 0 948.328 4.79775 960.155 14.3932C971.982 23.9887 979.903 37.5638 983.92 55.1183L952.902 59.5813C950.001 50.209 945.241 42.7334 938.62 37.1547C932.075 31.5015 923.669 28.6377 913.404 28.5633C903.214 28.4146 894.734 30.6089 887.965 35.1463C881.196 39.6837 876.101 46.1179 872.679 54.4489C869.332 62.7799 867.658 72.5241 867.658 83.6817C867.658 94.8392 869.332 104.509 872.679 112.691C876.101 120.874 881.196 127.233 887.965 131.771C894.734 136.308 903.214 138.651 913.404 138.8C920.322 138.949 926.57 137.759 932.149 135.23C937.802 132.701 942.563 128.721 946.431 123.291C950.299 117.861 953.051 110.906 954.687 102.426H929.248V78.9955H987.044C987.193 79.9625 987.305 81.6733 987.379 84.128C987.453 86.5826 987.491 87.9959 987.491 88.3678C987.491 103.765 984.366 117.415 978.118 129.316C971.87 141.217 963.056 150.553 951.675 157.322C940.294 164.016 926.868 167.363 911.396 167.363Z" fill="#EDEDED"/>
<path d="M1009.85 164.016V3.34726H1040.2V69.4H1112.06V3.34726H1142.4V164.016H1112.06V97.7402H1040.2V164.016H1009.85Z" fill="#EDEDED"/>
<path d="M1211 164.016V31.6875H1160.34V3.34726H1292V31.6875H1241.34V164.016H1211Z" fill="#EDEDED"/>
<path d="M520.178 291.531L490.121 193.162H509.248L533.841 274.043L558.843 193.162H577.97L547.913 291.531H520.178Z" fill="white"/>
<path d="M633.346 291.531V193.162H651.927V291.531H633.346Z" fill="white"/>
<path d="M753.287 293.58C746.001 293.58 739.42 292.305 733.545 289.755C727.716 287.159 722.911 283.47 719.132 278.688C715.397 273.861 713.029 268.123 712.027 261.474L731.428 258.605C732.794 264.252 735.617 268.601 739.898 271.652C744.179 274.704 749.052 276.229 754.517 276.229C757.568 276.229 760.528 275.751 763.397 274.795C766.267 273.838 768.612 272.427 770.434 270.559C772.301 268.692 773.234 266.392 773.234 263.66C773.234 262.658 773.075 261.702 772.756 260.791C772.483 259.834 772.005 258.946 771.322 258.127C770.638 257.307 769.659 256.533 768.384 255.804C767.155 255.075 765.583 254.415 763.671 253.823L738.122 246.309C736.209 245.762 733.978 244.988 731.428 243.986C728.923 242.984 726.486 241.55 724.118 239.683C721.75 237.815 719.769 235.356 718.175 232.305C716.627 229.208 715.853 225.314 715.853 220.624C715.853 214.02 717.515 208.532 720.839 204.161C724.164 199.789 728.604 196.532 734.16 194.392C739.716 192.252 745.864 191.204 752.604 191.25C759.39 191.341 765.447 192.502 770.775 194.734C776.103 196.965 780.566 200.221 784.164 204.502C787.762 208.737 790.358 213.929 791.952 220.077L771.868 223.493C771.139 220.305 769.796 217.618 767.838 215.432C765.879 213.246 763.534 211.584 760.802 210.445C758.115 209.307 755.291 208.692 752.331 208.601C749.416 208.51 746.661 208.92 744.065 209.83C741.515 210.696 739.42 211.971 737.781 213.656C736.187 215.341 735.39 217.345 735.39 219.667C735.39 221.808 736.05 223.561 737.371 224.927C738.691 226.248 740.354 227.318 742.357 228.138C744.361 228.958 746.411 229.641 748.505 230.187L765.583 234.832C768.134 235.516 770.957 236.426 774.054 237.565C777.151 238.658 780.111 240.206 782.935 242.21C785.804 244.168 788.149 246.764 789.971 249.998C791.838 253.231 792.771 257.33 792.771 262.294C792.771 267.576 791.656 272.199 789.424 276.161C787.238 280.077 784.278 283.334 780.544 285.929C776.809 288.48 772.574 290.392 767.838 291.668C763.147 292.943 758.297 293.58 753.287 293.58Z" fill="white"/>
<path d="M852.872 291.531V193.162H871.452V291.531H852.872Z" fill="white"/>
<path d="M977.868 293.58C968.031 293.58 959.538 291.44 952.388 287.159C945.283 282.878 939.796 276.89 935.925 269.193C932.099 261.497 930.187 252.548 930.187 242.347C930.187 232.145 932.099 223.197 935.925 215.5C939.796 207.804 945.283 201.815 952.388 197.534C959.538 193.253 968.031 191.113 977.868 191.113C987.705 191.113 996.176 193.253 1003.28 197.534C1010.43 201.815 1015.92 207.804 1019.74 215.5C1023.61 223.197 1025.55 232.145 1025.55 242.347C1025.55 252.548 1023.61 261.497 1019.74 269.193C1015.92 276.89 1010.43 282.878 1003.28 287.159C996.176 291.44 987.705 293.58 977.868 293.58ZM977.868 276.093C984.107 276.184 989.299 274.84 993.443 272.062C997.587 269.284 1000.68 265.345 1002.73 260.244C1004.83 255.144 1005.88 249.178 1005.88 242.347C1005.88 235.516 1004.83 229.595 1002.73 224.586C1000.68 219.576 997.587 215.682 993.443 212.904C989.299 210.126 984.107 208.692 977.868 208.601C971.629 208.51 966.437 209.853 962.293 212.631C958.149 215.409 955.029 219.348 952.934 224.449C950.885 229.55 949.86 235.516 949.86 242.347C949.86 249.178 950.885 255.098 952.934 260.108C955.029 265.117 958.149 269.011 962.293 271.789C966.437 274.567 971.629 276.002 977.868 276.093Z" fill="white"/>
<path d="M1082.91 291.531V193.162H1101.76L1144.52 258.741V193.162H1163.38V291.531H1144.52L1101.76 225.952V291.531H1082.91Z" fill="white"/>
</svg>
