<svg width="618" height="141" viewBox="0 0 618 141" fill="none" xmlns="http://www.w3.org/2000/svg">
<g clip-path="url(#clip0_12_60)">
<path d="M109.21 141H95.2742C84.6706 141 74.9027 135.244 69.7665 125.964L0 0H48.8804C41.6194 5.14442 39.3876 14.9285 43.6983 22.714L109.21 141Z" fill="#00FF99"/>
<path d="M182.406 141H168.47C157.866 141 148.098 135.244 142.962 125.964L73.1958 0H122.076C114.815 5.14442 112.583 14.9285 116.894 22.714L182.406 141Z" fill="#00FF99"/>
<path d="M195.593 0H148.822C148.822 0 148.822 0.0203941 148.812 0.0458868L152.914 1.98333C164.465 7.44386 173.489 17.1158 178.182 29.0056C178.854 30.7034 179.868 32.5898 180.77 33.7829C185.183 39.6105 190.095 40.1 195.965 40.1C206.894 40.1 215.781 31.3458 215.995 20.4604C216.219 9.16717 206.879 0 195.593 0Z" fill="white"/>
</g>
<g clip-path="url(#clip1_12_60)">
<path d="M282 1.43628H302.669C307.761 1.43628 312.327 2.23085 316.373 3.81489C320.419 5.39893 323.863 7.59927 326.705 10.4108C329.552 13.2224 331.735 16.5993 333.266 20.5466C334.797 24.494 335.557 28.8285 335.557 33.5551C335.557 38.2818 334.792 42.6163 333.266 46.5636C331.741 50.511 329.552 53.8879 326.705 56.6994C323.858 59.511 320.414 61.7113 316.373 63.2954C312.327 64.8794 307.761 65.674 302.669 65.674H282V1.43628ZM302.49 55.9813C309.74 55.9813 315.342 54.0101 319.296 50.0628C323.251 46.1154 325.225 40.6146 325.225 33.5551C325.225 26.4957 323.246 21.0713 319.296 17.0933C315.342 13.1154 309.74 11.129 302.49 11.129H292.153V55.9813H302.485H302.49Z" fill="white"/>
<path d="M375.547 67.1053C370.757 67.1053 366.338 66.2394 362.292 64.5026C358.246 62.7657 354.726 60.3922 351.731 57.3718C348.736 54.3515 346.399 50.7912 344.72 46.6961C343.042 42.601 342.205 38.2207 342.205 33.5552C342.205 28.8897 343.042 24.5247 344.72 20.4601C346.399 16.3956 348.736 12.8353 351.731 9.78441C354.726 6.73348 358.246 4.34469 362.292 2.60784C366.338 0.876094 370.751 0.00512695 375.547 0.00512695C380.343 0.00512695 384.685 0.871001 388.757 2.60784C392.828 4.34469 396.364 6.73348 399.359 9.78441C402.354 12.8353 404.691 16.3956 406.369 20.4601C408.048 24.5297 408.885 28.8948 408.885 33.5552C408.885 38.2156 408.043 42.601 406.369 46.6961C404.691 50.7912 402.354 54.3515 399.359 57.3718C396.364 60.3922 392.828 62.7708 388.757 64.5026C384.68 66.2343 380.277 67.1053 375.547 67.1053ZM375.547 57.4177C378.721 57.4177 381.716 56.8523 384.532 55.7114C387.349 54.5756 389.787 52.961 391.859 50.8676C393.925 48.7742 395.558 46.2632 396.757 43.3345C397.956 40.4058 398.553 37.146 398.553 33.5552C398.553 29.9644 397.956 26.7097 396.757 23.7759C395.558 20.8472 393.925 18.3362 391.859 16.2428C389.793 14.1494 387.349 12.5348 384.532 11.399C381.716 10.2632 378.721 9.69273 375.547 9.69273C372.374 9.69273 369.379 10.2632 366.563 11.399C363.746 12.5348 361.307 14.1494 359.241 16.2428C357.175 18.3362 355.542 20.8472 354.343 23.7759C353.144 26.7046 352.547 29.9644 352.547 33.5552C352.547 37.146 353.144 40.4058 354.343 43.3345C355.542 46.2632 357.175 48.7793 359.241 50.8676C361.307 52.961 363.746 54.5756 366.563 55.7114C369.379 56.8472 372.374 57.4177 375.547 57.4177Z" fill="white"/>
<path d="M441.686 67.1052C438.033 67.1052 434.706 66.4889 431.712 65.2665C428.717 64.039 426.14 62.292 423.982 60.0203C421.824 57.7487 420.16 54.9983 418.992 51.7691C417.824 48.5398 417.242 44.949 417.242 41.0016V1.43628H427.395V41.5365C427.395 43.8081 427.696 45.9168 428.293 47.8624C428.89 49.8081 429.788 51.4838 430.987 52.8845C432.186 54.2903 433.666 55.3955 435.436 56.2054C437.201 57.0101 439.283 57.4176 441.681 57.4176C444.079 57.4176 446.084 57.0152 447.88 56.2054C449.676 55.3955 451.161 54.2903 452.329 52.8845C453.498 51.4787 454.38 49.803 454.982 47.8624C455.579 45.9219 455.88 43.8132 455.88 41.5365V1.43628H466.034V40.9966C466.034 44.8828 465.477 48.4278 464.37 51.6264C463.263 54.8251 461.646 57.5653 459.518 59.837C457.391 62.1086 454.829 63.8913 451.834 65.1748C448.839 66.4584 445.457 67.1052 441.681 67.1052H441.686Z" fill="white"/>
<path d="M477.544 1.43628H501.809C504.386 1.43628 506.825 1.86922 509.131 2.73509C511.437 3.60097 513.473 4.79791 515.243 6.32083C517.009 7.84375 518.401 9.65699 519.422 11.7504C520.442 13.8438 520.947 16.1154 520.947 18.5704C520.947 21.8607 520.121 24.657 518.478 26.9592C516.83 29.2614 514.748 30.983 512.233 32.1188V32.6587C515.468 33.7945 518.09 35.6485 520.095 38.2207C522.101 40.7928 523.106 43.9049 523.106 47.5517C523.106 50.3022 522.565 52.7877 521.488 54.9983C520.412 57.2088 518.942 59.1086 517.085 60.6927C515.228 62.2767 513.085 63.5042 510.662 64.3701C508.233 65.2359 505.641 65.6689 502.886 65.6689H477.544V1.43628ZM501.447 28.258C502.942 28.258 504.294 28.0033 505.493 27.494C506.692 26.9847 507.697 26.3276 508.503 25.5178C509.309 24.7079 509.927 23.786 510.345 22.7368C510.764 21.6926 510.973 20.6281 510.973 19.5534C510.973 18.4787 510.764 17.4142 510.345 16.3701C509.927 15.3259 509.325 14.3989 508.549 13.5891C507.769 12.7843 506.809 12.1222 505.672 11.6129C504.534 11.1035 503.243 10.8488 501.809 10.8488H487.702V28.258H501.452H501.447ZM502.886 56.2461C504.503 56.2461 505.942 55.9762 507.197 55.4414C508.452 54.9066 509.503 54.1833 510.345 53.2869C511.182 52.3904 511.83 51.3718 512.279 50.2359C512.728 49.1001 512.952 47.9337 512.952 46.7368C512.952 45.5398 512.728 44.3887 512.279 43.2835C511.83 42.1782 511.156 41.1901 510.258 40.3242C509.361 39.4584 508.264 38.7555 506.978 38.2156C505.687 37.6757 504.207 37.4057 502.529 37.4057H487.702V56.2461H502.891H502.886Z" fill="white"/>
<path d="M532.448 1.43628H542.601V55.9813H570.188V65.6689H532.448V1.43628Z" fill="white"/>
<path d="M588.974 11.1239V28.7979H615.122V38.3072H588.974V55.9813H618V65.6689H578.821V1.43628H618V11.1239H588.974Z" fill="white"/>
<path d="M282 76.7673H360.272C365.363 76.7673 369.93 77.5619 373.976 79.1459C378.022 80.73 381.466 82.9303 384.308 85.7419C387.155 88.5534 389.338 91.9303 390.869 95.8777C392.4 99.8251 393.16 104.16 393.16 108.886C393.16 113.613 392.394 117.947 390.869 121.895C389.343 125.842 387.155 129.219 384.308 132.03C381.461 134.842 378.017 137.042 373.976 138.626C369.93 140.21 365.363 141.005 360.272 141.005H282V76.7724V76.7673ZM360.093 131.312C367.343 131.312 372.945 129.336 376.899 125.394C380.853 121.446 382.828 115.946 382.828 108.886C382.828 101.827 380.848 96.4023 376.899 92.4244C372.945 88.4465 367.343 86.46 360.093 86.46H292.153V131.317H360.088L360.093 131.312Z" fill="#838383"/>
<path d="M413.109 86.4601V104.134H429.145V113.643H413.109V131.317H442.135V141.005H402.956V76.7725H442.135V86.4601H413.109Z" fill="white"/>
<path d="M448.247 76.7673H458.941L469.993 118.034L471.523 124.222H472.064L473.86 118.034L484.554 85.3802H494.08L504.774 118.034L506.57 124.136H507.11L508.457 118.034L518.973 76.7673H529.667L512.595 141H502.529L491.478 107.18L489.59 100.813H489.049L487.253 107.18L476.11 141H466.044L448.252 76.7673H448.247Z" fill="white"/>
</g>
<defs>
<clipPath id="clip0_12_60">
<rect width="216" height="141" fill="white"/>
</clipPath>
<clipPath id="clip1_12_60">
<rect width="336" height="141" fill="white" transform="translate(282)"/>
</clipPath>
</defs>
</svg>
